<svg width="143" height="44" viewBox="0 0 143 44" fill="none" xmlns="http://www.w3.org/2000/svg">
<g clip-path="url(#clip0_24_20)">
<path d="M0 0H142.765C142.974 0.321606 142.986 0.607857 142.994 0.979429C143.197 11.181 143.005 21.4249 143.003 31.6304L143.001 40.0803C143 41.1255 143.173 42.5399 142.96 43.5436C142.926 43.7059 142.856 43.8607 142.765 44H0V0Z" fill="#433E3E"/>
<path d="M30.9963 5.35888C32.8608 5.26 35.4328 5.26904 36.9576 6.45602C37.8668 7.16368 38.1107 8.31319 38.2383 9.40063C38.6496 12.906 37.1836 20.3924 36.6305 24.2398C36.2149 27.1318 35.9596 30.187 35.2474 33.0158C34.9445 34.2185 34.5002 35.5769 33.7131 36.5523C32.5481 37.9962 30.9489 38.6685 29.1311 38.8651C26.6638 39.1029 24.0652 38.956 21.5826 38.9479C22.4536 33.7759 23.0264 28.5279 23.7863 23.3361C24.6481 17.4471 25.6996 11.5321 26.2787 5.60926L30.9963 5.35888Z" fill="white"/>
<path d="M31.248 9.75093C31.6707 9.827 32.1729 9.99415 32.4846 10.2956C32.894 10.6915 32.8905 11.2144 32.8943 11.743C32.9204 15.3229 32.0335 19.4852 31.5283 23.0654C31.0781 26.2569 30.8448 29.7372 30.0142 32.8511C29.8707 33.3887 29.6941 33.8317 29.2912 34.236C28.7193 34.298 28.1239 34.2928 27.5481 34.3169C27.7182 31.8152 30.7054 10.6442 31.248 9.75093Z" fill="#050505"/>
<path d="M76.8885 5.49995C78.4583 5.59892 80.0479 5.55041 81.6209 5.54559C81.6578 5.60682 81.6873 5.67176 81.7066 5.74062C81.7767 5.9901 77.3314 38.3013 77.0609 38.7636C77.0197 38.8345 76.9779 38.9034 76.9297 38.9698C75.2073 38.9287 73.4795 38.9667 71.7571 38.9777C71.884 38.7929 71.9231 38.5649 71.929 38.3447C71.9745 36.6144 71.6296 34.7242 71.4995 32.9852L71.0742 27.5892C71.0046 26.6151 71.0249 25.5237 70.8343 24.5729C70.7636 24.218 70.6136 23.9842 70.3667 23.7216C70.4304 24.0473 70.4845 24.386 70.4631 24.7185C70.3672 26.178 68.9185 37.8049 68.6561 38.2016C68.6175 38.26 68.5795 38.3162 68.534 38.3699L68.6191 38.7659C68.1376 39.1844 64.2584 38.958 63.3479 38.9456C63.3677 38.9198 63.386 38.8941 63.4036 38.8667C63.4952 38.7249 63.6061 38.5856 63.6484 38.4191C63.936 37.2743 64.0056 35.9701 64.1663 34.7971L65.1893 27.5698L67.2207 13.7406C67.5597 11.3729 67.9743 8.98485 68.1976 6.60466C68.2346 6.21577 68.2619 5.90353 68.061 5.54829L73.4302 5.56202C73.457 5.60242 73.4795 5.64382 73.5015 5.6866C73.5122 5.70759 73.5229 5.72816 73.5325 5.74995C73.7751 6.31681 74.4703 17.8809 74.4484 19.348C74.4446 19.6006 74.3713 19.848 74.2738 20.0798C74.4752 19.8687 74.6958 19.6465 74.7836 19.3629C75.2164 17.9695 75.2946 16.3216 75.5078 14.8734L76.8885 5.49995Z" fill="white"/>
<path d="M11.979 5.53976L22.812 5.53987C22.2364 10.5132 21.961 15.5589 21.5535 20.5509C21.0522 26.6937 20.4451 32.8322 20.0505 38.9775C18.3601 38.9242 16.6589 38.9585 14.9672 38.9548L15.7072 29.9795L15.786 28.7456C14.6987 28.7475 13.6208 28.7357 12.5355 28.6656C11.8792 32.071 11.0928 35.5373 10.663 38.9745C8.85941 38.9324 7.05038 38.9594 5.24615 38.9585C5.63018 37.6127 5.82583 36.1533 6.10031 34.7787L7.74015 26.6037C9.15682 19.5819 10.7342 12.5956 11.979 5.53976Z" fill="white"/>
<path d="M16.1144 9.83755C16.5166 9.83018 17.1403 9.74319 17.455 10.0235C17.5658 10.7636 16.4771 23.3793 16.2555 23.9361C15.8411 24.1807 15.473 24.1242 14.9976 24.1356C14.5085 24.1505 14.0718 24.1743 13.6045 24.0015C13.3855 23.6155 15.8737 11.2444 16.1144 9.83755Z" fill="#050505"/>
<path d="M116.814 5.36747C118.229 5.30979 119.803 5.31059 121.168 5.7059C122.365 6.05255 123.288 6.78416 123.885 7.87086C125.213 10.2889 124.486 14.7027 123.708 17.2657C123.187 18.9852 122.398 20.0421 120.808 20.8907C121.495 21.4511 122.277 22.3428 122.432 23.2342C122.614 24.2778 122.575 25.413 122.501 26.4693C122.411 27.7279 121.086 38.4377 120.704 38.9728C118.943 38.9236 117.173 38.9588 115.41 38.96C116.099 38.0538 115.694 35.7134 116.151 35.1579C116.316 34.9582 116.487 35.0174 116.628 34.7264C116.471 34.5828 116.239 34.3718 116.236 34.1396C116.215 32.3548 117.785 26.8103 117.016 25.5116C117.187 25.2554 117.229 25.0107 117.198 24.7056C117.166 24.3792 116.972 24.0923 116.718 23.8898C116.399 23.6357 116.099 23.5817 115.701 23.6198C115.529 23.7228 115.392 23.7768 115.29 23.9552C114.924 24.5992 114.934 26.3424 114.839 27.119C114.64 28.7288 113.562 38.2385 112.968 38.995C111.228 38.9095 109.477 38.9542 107.735 38.9645C107.816 38.87 107.89 38.7608 107.928 38.642C108.25 37.642 108.298 36.3226 108.45 35.267L109.608 26.9825L111.428 13.8258C111.768 11.3906 112.2 8.93078 112.417 6.48433C112.444 6.18841 112.438 5.97891 112.294 5.71104C113.799 5.5801 115.306 5.46558 116.814 5.36747Z" fill="white"/>
<path d="M117.391 9.87318C117.607 9.83702 117.844 9.79695 118.057 9.86469C118.414 9.97803 118.688 10.2691 118.847 10.5963C119.601 12.146 118.865 15.4654 118.303 17.0459C118.037 17.7967 117.705 18.5394 116.944 18.9016C116.681 19.1051 116.61 19.1888 116.267 19.2148C116.234 19.1737 116.205 19.131 116.181 19.0846C115.768 18.302 117.04 10.9878 117.391 9.87318Z" fill="#050505"/>
<path d="M97.5094 5.63221C99.1461 5.37272 100.998 5.53653 102.66 5.53843C102.788 5.79151 102.815 5.99731 102.792 6.27769C102.574 8.91641 102.024 11.6099 101.64 14.2352L99.6758 28.2859C99.468 29.787 99.0213 31.5035 99.0508 33.0042C99.061 33.5203 99.1156 34.3339 99.5162 34.7043C99.6962 34.8706 99.7851 34.8434 100.018 34.8363C100.462 34.5833 100.914 34.035 101.053 33.54C101.22 32.9451 101.232 32.2852 101.34 31.6743C101.803 29.0616 102.151 26.4191 102.541 23.7946L104.14 12.7925C104.442 10.6696 104.826 8.50881 104.979 6.37189C105 6.0712 104.978 5.82162 104.826 5.55147L110.167 5.56059C110.21 5.63465 110.248 5.71963 110.269 5.80296C110.435 6.4671 109.939 9.33903 109.581 9.90313C109.586 9.91145 109.59 9.91972 109.594 9.9281C109.907 10.585 106.966 30.0787 106.508 32.5108C106.34 33.4124 106.098 34.2938 105.78 35.155C105.172 36.7609 104.03 38.0407 102.443 38.7527C100.738 39.5173 98.4349 39.6691 96.6744 39.0044C95.1946 38.4458 94.2852 37.4041 93.9221 35.878C93.326 33.3739 94.3768 28.8215 94.7474 26.2206C95.1014 23.7312 97.8007 6.25277 97.5206 5.65554C97.5169 5.64769 97.5131 5.64 97.5094 5.63221Z" fill="white"/>
<path d="M40.7613 5.53563L46.3906 5.55174C46.8741 6.40296 44.557 23.7283 44.343 26.0856C44.2918 26.6494 44.1179 27.2155 44.4916 27.6587L44.726 27.6786C44.9029 27.5629 44.9917 27.3857 45.0647 27.1947C45.7292 25.4551 46.226 21.4048 46.5999 19.3544C47.3742 15.1083 48.4109 10.6966 48.8983 6.41844C48.9344 6.10105 48.9411 5.84548 48.8078 5.54628C50.6458 5.56381 52.4838 5.56058 54.3218 5.53658C54.3448 5.5862 54.3625 5.63661 54.377 5.68952C54.5039 6.16583 52.9459 12.9145 52.6159 13.4678C52.435 13.3819 52.3273 13.3734 52.1307 13.4096L51.9819 13.7353C52.2037 13.7912 52.3382 13.843 52.5049 14.0074C51.8297 17.7791 50.6612 21.544 49.738 25.2715C48.6744 29.5664 47.7946 33.9185 46.6492 38.1913C46.5693 38.4892 46.4943 38.7294 46.2997 38.9777C44.0195 38.9211 41.7334 38.9581 39.4525 38.9666C39.4784 36.1523 39.6979 33.3366 39.8203 30.5249L40.5011 13.5823C40.5934 10.922 40.849 8.18978 40.7613 5.53563Z" fill="white"/>
<path d="M66.1924 5.50016C66.3268 5.56563 66.3638 5.70288 66.4179 5.83164C66.3075 6.96096 66.2909 9.22542 65.6204 10.1179C63.9051 10.1085 62.1898 10.0882 60.4745 10.057C60.5152 10.1333 60.5426 10.2157 60.5608 10.3C60.7027 10.9569 59.796 16.8458 59.6026 17.7548C59.5517 17.9963 59.4409 18.2288 59.3086 18.4364L63.2772 18.4236C63.3169 18.5114 63.3511 18.608 63.3688 18.7027C63.4979 19.3804 63.0684 22.6812 62.679 23.2456C61.3384 23.1403 59.9256 23.1991 58.5791 23.2407C58.7794 24.2542 57.622 33.3677 57.1031 34.2699L62.2939 34.2395C62.4947 35.4664 62.0416 37.6171 61.7433 38.8313C61.3915 39.0617 60.7793 38.9574 60.353 38.9571L51.1299 38.9608C51.8401 37.9147 51.4449 35.6003 51.8611 35.0792C51.9389 34.9818 52.1963 34.9834 52.3277 34.8027C51.7585 33.1201 52.7534 28.8387 53.0239 26.8986L54.9399 13.2041C55.2628 10.9655 55.748 8.70108 55.9403 6.45088C55.9676 6.12708 55.988 5.84569 55.8241 5.54941C59.1961 5.55572 62.8605 5.80153 66.1924 5.50016Z" fill="white"/>
<path d="M127.422 5.63237C128.598 5.41184 130.009 5.53653 131.209 5.5395L137.847 5.54893C137.88 5.60873 137.909 5.67484 137.929 5.74015C138.109 6.33245 137.563 9.62577 137.273 10.1583C135.516 10.0091 133.707 10.0907 131.943 10.0908C131.947 10.0986 131.951 10.1063 131.955 10.1143C131.961 10.1275 131.965 10.1412 131.971 10.1544C132.035 10.295 132.092 10.4222 132.105 10.5787C132.19 11.5799 131.396 17.8606 130.897 18.4468L134.919 18.4314C134.951 18.5084 134.976 18.5906 134.993 18.6722C135.129 19.3622 134.646 22.749 134.299 23.256C132.925 23.1598 131.519 23.2224 130.141 23.2287C130.157 23.2599 130.16 23.2637 130.171 23.2931C130.176 23.3058 130.18 23.3188 130.185 23.3317C130.54 24.2948 129.177 32.9445 128.763 34.2512C129.164 34.2847 129.576 34.2744 129.978 34.2823C131.252 34.2668 132.529 34.2693 133.801 34.1971C133.851 34.2941 133.896 34.4035 133.918 34.5107C134.056 35.1836 133.534 38.4723 133.184 38.971C129.692 38.9445 126.199 38.9442 122.706 38.9701C122.756 38.913 122.798 38.8529 122.841 38.7905C123.065 38.4607 127.667 6.91685 127.422 5.63237Z" fill="white"/>
<path d="M83.2608 5.63221C84.543 5.40855 86.0517 5.53918 87.3591 5.54114C90.1725 5.54548 92.9918 5.5933 95.8041 5.52407C95.8582 5.62808 95.9085 5.75011 95.9257 5.86626C96.0457 6.67098 95.6568 9.48401 95.2096 10.0962C94.0003 10.1174 92.7909 10.0792 91.5816 10.0511C91.5848 10.0573 91.588 10.0633 91.5907 10.0696C91.595 10.0801 91.5987 10.0909 91.6025 10.1015C91.6405 10.2023 91.6737 10.309 91.6882 10.416C91.7937 11.2042 91.0091 15.2699 90.8473 16.432C89.9861 22.6094 89.2797 28.8441 88.2594 34.9956C88.2123 35.281 88.1571 35.497 87.9761 35.7326C88.0189 35.8305 88.0521 35.9355 88.0666 36.0415C88.1496 36.6569 87.923 38.4743 87.5315 38.9651C85.7593 38.9368 83.9838 38.959 82.2116 38.9596C82.3032 38.8426 82.4039 38.7145 82.4649 38.5792C82.857 37.71 83.1521 34.1099 83.3256 32.8717L85.5852 16.9494C85.7571 15.7725 86.7094 10.8008 86.447 10.0696L82.6278 10.1366C82.6781 10.0788 82.7188 10.0182 82.7606 9.95444C82.7965 9.9009 82.8291 9.84831 82.8597 9.7917C83.2828 9.0041 83.5174 6.46058 83.2608 5.63221Z" fill="white"/>
</g>
<defs>
<clipPath id="clip0_24_20">
<rect width="143" height="44" fill="white"/>
</clipPath>
</defs>
</svg>
